<svg width="245" height="45" viewBox="0 0 245 45" fill="none" xmlns="http://www.w3.org/2000/svg">
  <defs>
    <linearGradient id="logoGradient" x1="0%" y1="0%" x2="100%" y2="100%">
      <stop offset="0%" style="stop-color:#9370DB"/>
      <stop offset="50%" style="stop-color:#8A2BE2"/>
      <stop offset="100%" style="stop-color:#7C3AED"/>
    </linearGradient>
  </defs>
  <!-- Ritivel Icon - Layered documents -->
  <path fill-rule="evenodd" clip-rule="evenodd" d="M21.4402 44.448L1.28816 35.1797C-0.428493 34.3706 -0.428493 33.1201 1.28816 32.3845L8.30407 29.1479L21.3656 35.1797C23.0823 35.9889 25.8438 35.9889 27.4859 35.1797L40.5474 29.1479L47.5633 32.3845C49.2799 33.1936 49.2799 34.4441 47.5633 35.1797L27.4112 44.448C25.8438 45.1836 23.0823 45.1836 21.4402 44.448Z" fill="#7C3AED"/>
  <path fill-rule="evenodd" clip-rule="evenodd" d="M21.4402 33.0471L1.28816 23.7788C-0.428493 22.9696 -0.428493 21.7191 1.28816 20.9836L8.15479 17.8206L21.4402 23.9259C23.1569 24.735 25.9184 24.735 27.5605 23.9259L40.8459 17.8206L47.7125 20.9836C49.4292 21.7927 49.4292 23.0432 47.7125 23.7788L27.5605 33.0471C25.8438 33.8562 23.0822 33.8562 21.4402 33.0471Z" fill="#9370DB"/>
  <path fill-rule="evenodd" clip-rule="evenodd" d="M21.4396 21.9387L1.28749 12.6704C-0.429164 11.8612 -0.429164 10.6108 1.28749 9.87517L21.4396 0.606854C23.1562 -0.202285 25.9178 -0.202285 27.5598 0.606854L47.7119 9.87517C49.4285 10.6843 49.4285 11.9348 47.7119 12.6704L27.5598 21.9387C25.8432 22.6743 23.0816 22.6743 21.4396 21.9387Z" fill="#A78BFA"/>
  <!-- Ritivel Text -->
  <text x="60" y="32" font-family="system-ui, -apple-system, BlinkMacSystemFont, 'Segoe UI', sans-serif" font-size="28" font-weight="600" fill="#333333">ritivel</text>
</svg>
